<?xml version="1.0" encoding="utf-8"?>
<!-- Generator: Adobe Illustrator 24.2.0, SVG Export Plug-In . SVG Version: 6.00 Build 0)  -->
<svg version="1.1" id="Layer_1" xmlns="http://www.w3.org/2000/svg" xmlns:xlink="http://www.w3.org/1999/xlink" x="0px" y="0px"
	 viewBox="0 0 595.28 841.89" style="enable-background:new 0 0 595.28 841.89;" xml:space="preserve">
<path d="M220.31,507.93c53.37,0,106.74,0,160.11,0l0,0c1.93-0.41,4.62-1.09,7.73-2.26c4.15-1.55,23.08-8.63,31.25-28.35
	c5.34-12.91,3.39-24.74,2.26-29.64c-3.95-17.02-15.69-26.44-19.65-29.32c-7.62-5.54-15.14-7.74-19.65-8.7
	c0.6-1.48,1.34-3.57,1.93-6.12c0.24-1.03,2.08-9.28,0.32-17.4c-2.29-10.58-10.49-19.99-20.62-24.81
	c-14.75-7.01-28.55-1.89-30.93-0.97l-6.77,4.83c-0.7-1.39-1.75-3.31-3.22-5.48c-6.12-9.01-13.67-13.67-17.72-16.11
	c-16.27-9.8-32.89-9.7-34.79-9.66c-4.96,0.09-21.19,0.97-36.72,12.56c-4.58,3.42-17.59,13.42-22.23,31.25
	c-1.56,5.99-1.74,11.21-1.61,14.82l-0.03,7.73c-2.56,0.48-6.09,1.38-9.95,3.22c-18.46,8.78-24.3,29.15-25.45,33.18
	c-1.01,3.53-7.73,28.58,8.38,50.25c9.49,12.77,22.05,17.85,27.38,19.65L220.31,507.93z"/>
</svg>
