<?xml version="1.0" encoding="utf-8"?>
<!-- Generator: Adobe Illustrator 24.2.0, SVG Export Plug-In . SVG Version: 6.00 Build 0)  -->
<svg version="1.1" id="Layer_1" xmlns="http://www.w3.org/2000/svg" xmlns:xlink="http://www.w3.org/1999/xlink" x="0px" y="0px"
	 viewBox="0 0 595.28 841.89" style="enable-background:new 0 0 595.28 841.89;" xml:space="preserve">
<path d="M526.61,448c9.25-0.81,16.97-1.93,22.71-2.9c14.2-2.39,20.47-4.56,26.34-8.21c7.58-4.72,8.97-8.49,9.42-10.39
	c0.09-0.38,1.34-5.77-1.69-10.39c-1.52-2.31-4.07-3.71-9.18-6.52c-1.87-1.03-5.42-2.78-6.28-2.9c-0.07-0.01-0.42-0.05-0.77-0.28
	c-0.37-0.25-0.53-0.59-0.56-0.64c-0.45-0.83-7.99-8.33-10.07-10.15c-6.8-5.96-21.62-9.36-29.44-11.15
	c-2.55-0.58-11.95-2.68-24.64-3.62c-5.76-0.43-10.65-0.51-14.26-0.48c-76.59-0.62-108.3-0.5-114.28,0c-0.54,0.04-2.69,0.25-5.56,0
	c-7.47-0.64-12.77-3.73-13.97-4.39c-2.89-1.58-7.3-2.89-115.61-33.7c-23.28-6.62-42.84-12.13-70.23-17.07
	c-0.97-0.18-4.52-1.41-9.34-1.61c-4.7-0.2-8.34,0.56-9.99,0.97c-3.55,0.87-6.37,2.14-8.38,3.22l85.69,42.52l4.51,2.9l-11.28,6.44
	h-95.68l-71.19-92.78l-28.99-2.9L37.1,385.42c-0.81,0.33-2.03,0.8-3.54,1.29c-8.37,2.7-11.53,1.31-16.43,3.87
	c-1.74,0.9-4.92,2.57-6.44,6.12c-1.87,4.37-0.3,9.47,2.26,12.56c2.57,3.11,6.07,4.11,7.41,4.51c11.95,3.53-5.78,1.1,26.74,11.28
	c25.91,8.1,40.58,12.69,63.79,17.07c12.2,2.3,28.14,4.81,47.03,6.44h117.58c-1.67,2.06-4.41,5.1-8.38,8.05
	c-4.97,3.7-10.13,5.96-18.68,9.66c-8.29,3.58-11.25,4.4-12.89,7.73c-1.49,3.04-0.98,6.38-0.32,8.7l-113.07,71.84
	c1.56,0.69,4.39,1.82,8.05,2.58c11.74,2.42,21.74-1.16,26.42-2.9c7.35-2.73,60.85-22.7,135.3-52.19c3.75,0.65,9.45,1.54,16.43,2.26
	c13.47,1.39,26.58,2.64,41.88-0.32c12.71-2.46,20.35-3.94,24.48-10.63c6.54-10.58-1.22-25.17-2.26-27.06l39.62-17.72L526.61,448z"/>
</svg>
