<?xml version="1.0" encoding="utf-8"?>
<!-- Generator: Adobe Illustrator 24.2.0, SVG Export Plug-In . SVG Version: 6.00 Build 0)  -->
<svg version="1.1" id="Layer_1" xmlns="http://www.w3.org/2000/svg" xmlns:xlink="http://www.w3.org/1999/xlink" x="0px" y="0px"
	 viewBox="0 0 595.28 841.89" style="enable-background:new 0 0 595.28 841.89;" xml:space="preserve">
<path d="M197.82,316.66c4.19-6.83-0.97-12.01,0.48-21.74c1.71-11.47,11.05-18.86,18.36-24.64c3.98-3.14,16.44-12.72,35.28-13.53
	c16.1-0.7,28.02,5.38,32.86,8.21c2.09-2.24,5.28-5.31,9.66-8.27c5-3.37,16.37-11.05,30.93-9.61c19.27,1.91,30.06,18.43,32.38,22.23
	c4.86,7.99,6.28,15.7,6.77,20.3c4.73-0.44,12.2-0.54,20.78,1.93c15.15,4.37,24.03,13.98,27.54,17.88
	c14.55,16.15,16.59,35.15,16.91,42.52c0.83,19.01-6.56,33.24-10.63,41.07c-3.38,6.5-6.95,11.53-9.66,14.98
	c0.38,4.56,0.54,10.91-0.48,18.36c-0.96,6.97-2.99,20.53-12.56,33.83c-14.02,19.47-34.44,24.81-37.69,25.61
	c-16.47,4.05-30.16,0.53-36.24-1.45l-9.24,10.63v76.35c-0.5,2.76-0.33,5.05,0,6.77c2.14,11.24,14.46,16.31,16,16.91h-61.85
	c1.74-1.59,4.25-3.91,7.25-6.77c3.37-3.21,5.07-4.83,5.8-5.8c1.74-2.31,4.1-7.05,2.42-16.43l-0.48-64.75
	c-2.29-0.18-5.64-0.49-9.66-0.97c-11.56-1.38-20.78-2.48-28.99-5.32c-14.11-4.88-23.02-14.11-26.58-17.88
	c-12.7-13.46-16.88-28.3-18.36-35.28c-3.06-0.31-7.69-1.19-12.56-3.87c-8.73-4.81-12.62-12.34-14.98-16.91
	c-1.74-3.38-7.5-15.47-5.32-30.93c1.72-12.15,7.56-20.82,12.08-27.54c2.37-3.51,4.61-6.28,6.28-8.21c-1-2.46-2.31-6.49-2.42-11.6
	c-0.06-2.65-0.2-9.11,3.38-14.98C189.51,320.8,194.34,322.34,197.82,316.66z"/>
</svg>
